<!-- sample rectangle -->
<svg width="99" height="42" viewBox="0 0 99 42" fill="none" xmlns="http://www.w3.org/2000/svg">
<rect width="99" height="42" rx="5" fill="#DBA506"/>
<path d="M23.3725 12.5455H27.9237L32.7305 24.2727H32.935L37.7418 12.5455H42.293V30H38.7134V18.6392H38.5685L34.0515 29.9148H31.614L27.0969 18.5966H26.9521V30H23.3725V12.5455ZM51.521 30H45.3335V12.5455H51.5721C53.3278 12.5455 54.8391 12.8949 56.1062 13.5938C57.3732 14.2869 58.3477 15.2841 59.0295 16.5852C59.717 17.8864 60.0607 19.4432 60.0607 21.2557C60.0607 23.0739 59.717 24.6364 59.0295 25.9432C58.3477 27.25 57.3675 28.2528 56.0891 28.9517C54.8164 29.6506 53.2937 30 51.521 30ZM49.0238 26.8381H51.3675C52.4585 26.8381 53.3761 26.6449 54.1204 26.2585C54.8704 25.8665 55.4329 25.2614 55.8079 24.4432C56.1886 23.6193 56.3789 22.5568 56.3789 21.2557C56.3789 19.9659 56.1886 18.9119 55.8079 18.0938C55.4329 17.2756 54.8732 16.6733 54.1289 16.2869C53.3846 15.9006 52.467 15.7074 51.3761 15.7074H49.0238V26.8381ZM62.7944 30V12.5455H69.783C71.0671 12.5455 72.1381 12.7358 72.9961 13.1165C73.854 13.4972 74.4989 14.0256 74.9308 14.7017C75.3626 15.3722 75.5785 16.1449 75.5785 17.0199C75.5785 17.7017 75.4421 18.3011 75.1694 18.8182C74.8967 19.3295 74.5217 19.75 74.0444 20.0795C73.5728 20.4034 73.033 20.6335 72.4251 20.7699V20.9403C73.0898 20.9687 73.712 21.1562 74.2915 21.5028C74.8768 21.8494 75.3512 22.3352 75.7148 22.9602C76.0785 23.5795 76.2603 24.3182 76.2603 25.1761C76.2603 26.1023 76.0302 26.929 75.57 27.6562C75.1154 28.3778 74.4421 28.9489 73.5501 29.3693C72.658 29.7898 71.5586 30 70.2518 30H62.7944ZM66.4847 26.983H69.4933C70.5217 26.983 71.2717 26.7869 71.7433 26.3949C72.2148 25.9972 72.4506 25.4687 72.4506 24.8097C72.4506 24.3267 72.3342 23.9006 72.1012 23.5312C71.8683 23.1619 71.5359 22.8722 71.104 22.6619C70.6779 22.4517 70.1694 22.3466 69.5785 22.3466H66.4847V26.983ZM66.4847 19.8494H69.2205C69.7262 19.8494 70.1751 19.7614 70.5671 19.5852C70.9648 19.4034 71.2773 19.1477 71.5046 18.8182C71.7376 18.4886 71.854 18.0938 71.854 17.6335C71.854 17.0028 71.6296 16.4943 71.1808 16.108C70.7376 15.7216 70.1069 15.5284 69.2887 15.5284H66.4847V19.8494Z" fill="black"/>
</svg>
